<svg width="33" height="63" viewBox="0 0 33 63" fill="none" xmlns="http://www.w3.org/2000/svg">
<path d="M15.5613 61.4435C15.8821 62.3172 17.1179 62.3172 17.4387 61.4435L31.8999 22.0599C35.8315 11.3525 27.9064 0 16.5 0C5.09357 0 -2.83152 11.3525 1.10012 22.0599L15.5613 61.4435Z" fill="#FF0000"/>
<path fill-rule="evenodd" clip-rule="evenodd" d="M30.9612 21.7152L16.5 61.0988L2.03883 21.7152C-1.65314 11.6605 5.78887 1 16.5 1C27.2111 1 34.6531 11.6605 30.9612 21.7152ZM17.4387 61.4435C17.1179 62.3172 15.8821 62.3172 15.5613 61.4435L1.10012 22.0599C-2.83152 11.3525 5.09357 0 16.5 0C27.9064 0 35.8315 11.3525 31.8999 22.0599L17.4387 61.4435Z" fill="white"/>
<path d="M16.3682 18.5586C16.6423 18.0791 16.4757 17.4683 15.9961 17.1942C15.5166 16.9202 14.9058 17.0868 14.6318 17.5663L13.3818 19.7538C13.2049 20.0634 13.2062 20.4436 13.3851 20.7519C13.564 21.0602 13.8935 21.25 14.25 21.25H15.0268L14.6318 21.9413C14.3577 22.4209 14.5243 23.0317 15.0039 23.3057C15.4834 23.5797 16.0942 23.4131 16.3682 22.9336L17.6182 20.7461C17.7951 20.4366 17.7938 20.0564 17.6149 19.7481C17.436 19.4397 17.1065 19.25 16.75 19.25H15.9732L16.3682 18.5586Z" fill="white"/>
<path fill-rule="evenodd" clip-rule="evenodd" d="M10.3333 24.5138C9.86039 24.5932 9.5 25.0045 9.5 25.5C9.5 26.0523 9.94772 26.5 10.5 26.5H20.5C21.0523 26.5 21.5 26.0523 21.5 25.5C21.5 25.0045 21.1396 24.5932 20.6667 24.5138V18.6491C20.7704 18.6794 20.8699 18.7385 20.9544 18.8272C21.0852 18.9645 21.1667 19.1608 21.1667 19.375V22C21.1667 22.598 21.3924 23.1807 21.8086 23.6177C22.2264 24.0564 22.8037 24.3125 23.4167 24.3125C24.0296 24.3125 24.6069 24.0564 25.0247 23.6177C25.4409 23.1807 25.6667 22.598 25.6667 22V15.875C25.6667 15.6182 25.5679 15.3713 25.3908 15.1853L22.8908 12.5603C22.5099 12.1604 21.8769 12.145 21.477 12.5259C21.0771 12.9067 21.0616 13.5397 21.4425 13.9397L21.619 14.125L21.4425 14.3103C21.0616 14.7103 21.0771 15.3433 21.477 15.7241C21.8769 16.105 22.5099 16.0896 22.8908 15.6897L23 15.575L23.6667 16.275V22C23.6667 22.0982 23.629 22.1831 23.5764 22.2384C23.5253 22.292 23.4668 22.3125 23.4167 22.3125C23.3665 22.3125 23.308 22.292 23.2569 22.2384C23.2043 22.1831 23.1667 22.0982 23.1667 22V19.375C23.1667 18.661 22.897 17.967 22.4026 17.4479C21.945 16.9674 21.3278 16.6729 20.6667 16.6304V13.25C20.6667 12.536 20.397 11.842 19.9027 11.3229C19.4067 10.8022 18.7234 10.5 18 10.5H13C12.2766 10.5 11.5933 10.8022 11.0974 11.3229C10.603 11.842 10.3333 12.536 10.3333 13.25V24.5138ZM13 12.5C12.8394 12.5 12.6748 12.5665 12.5456 12.7022C12.4148 12.8395 12.3333 13.0358 12.3333 13.25V14H18.6667V13.25C18.6667 13.0358 18.5852 12.8395 18.4544 12.7022C18.3252 12.5665 18.1606 12.5 18 12.5H13ZM18.6667 16H12.3333V24.5H18.6667V17.6312L18.6667 17.625L18.6667 17.6188V16Z" fill="white"/>
</svg>
