<svg width="33" height="63" viewBox="0 0 33 63" fill="none" xmlns="http://www.w3.org/2000/svg">
<path d="M15.5613 61.4435C15.8821 62.3172 17.1179 62.3172 17.4387 61.4435L31.8999 22.0599C35.8315 11.3525 27.9064 0 16.5 0C5.09357 0 -2.83152 11.3525 1.10012 22.0599L15.5613 61.4435Z" fill="#FF0000"/>
<path fill-rule="evenodd" clip-rule="evenodd" d="M15.7722 10.0012C15.8178 10.0004 15.8634 9.99999 15.9091 9.99999C16.1007 9.99999 16.2904 10.0072 16.4782 10.0214C18.0547 10.0951 20.1136 10.388 21.9183 11.3328C23.0281 11.9139 24.0611 12.7516 24.8128 13.9487C25.5663 15.1488 26 16.6511 26 18.5C26 20.3489 25.5663 21.8512 24.8128 23.0513C24.0611 24.2484 23.0281 25.0861 21.9183 25.6672C20.1136 26.612 18.0547 26.9049 16.4782 26.9786C16.2904 26.9928 16.1007 27 15.9091 27C15.8634 27 15.8178 26.9996 15.7722 26.9988C15.6948 26.9996 15.6192 27 15.5455 27V26.9913C11.2777 26.7862 8.00002 22.9889 8.00002 18.5C8.00002 14.0111 11.2777 10.2138 15.5455 10.0087V9.99999C15.6192 9.99999 15.6948 10.0004 15.7722 10.0012ZM15.7818 12.0015C12.6492 12.0757 10 14.8802 10 18.5C10 22.1197 12.6492 24.9243 15.7818 24.9985C15.9613 24.9962 16.1483 24.9911 16.3412 24.9826C19.339 24.7405 21.8182 22.0017 21.8182 18.5C21.8182 14.9983 19.339 12.2594 16.3412 12.0174C16.1483 12.0088 15.9613 12.0038 15.7818 12.0015ZM23.1264 15.0241C23.5719 16.0909 23.8182 17.2695 23.8182 18.5C23.8182 19.7305 23.5719 20.9091 23.1264 21.9759C23.6491 21.1382 24 20.0189 24 18.5C24 16.9811 23.6491 15.8618 23.1264 15.0241ZM12.3637 18.5C12.3637 16.3819 13.945 14.5 16.0909 14.5H16.0929C16.9258 14.5016 17.729 14.7978 18.3688 15.3329C18.7925 15.6872 18.8487 16.3178 18.4944 16.7415C18.1401 17.1652 17.5095 17.2214 17.0858 16.8671C16.8001 16.6282 16.4485 16.5009 16.09 16.5C15.2238 16.5006 14.3637 17.3035 14.3637 18.5C14.3637 19.6969 15.2244 20.5 16.0909 20.5C16.4548 20.5 16.7997 20.369 17.0906 20.1289C17.5165 19.7772 18.1468 19.8374 18.4984 20.2633C18.85 20.6892 18.7899 21.3195 18.364 21.6711C17.7428 22.184 16.9547 22.5 16.0909 22.5C13.945 22.5 12.3637 20.6181 12.3637 18.5Z" fill="white"/>
<path fill-rule="evenodd" clip-rule="evenodd" d="M30.9612 21.7152L16.5 61.0988L2.03883 21.7152C-1.65314 11.6605 5.78887 1.00001 16.5 1.00001C27.2111 1.00001 34.6531 11.6605 30.9612 21.7152ZM17.4387 61.4435C17.1179 62.3172 15.8821 62.3172 15.5613 61.4435L1.10012 22.0599C-2.83152 11.3525 5.09357 0 16.5 0C27.9064 0 35.8315 11.3525 31.8999 22.0599L17.4387 61.4435Z" fill="white"/>
</svg>
