<svg width="33" height="63" viewBox="0 0 33 63" fill="none" xmlns="http://www.w3.org/2000/svg">
<path d="M15.5613 61.4435C15.8821 62.3172 17.1179 62.3172 17.4387 61.4435L31.8999 22.0599C35.8315 11.3525 27.9064 0 16.5 0C5.09358 0 -2.83152 11.3525 1.10012 22.0599L15.5613 61.4435Z" fill="#FF0000"/>
<path fill-rule="evenodd" clip-rule="evenodd" d="M30.9612 21.7152L16.5 61.0988L2.03883 21.7152C-1.65314 11.6605 5.78887 1 16.5 1C27.2111 1 34.6531 11.6605 30.9612 21.7152ZM17.4387 61.4435C17.1179 62.3172 15.8821 62.3172 15.5613 61.4435L1.10012 22.0599C-2.83152 11.3525 5.09358 0 16.5 0C27.9064 0 35.8315 11.3525 31.8999 22.0599L17.4387 61.4435Z" fill="white"/>
</svg>
